<svg width="80" height="80" viewBox="0 0 80 80" fill="none" xmlns="http://www.w3.org/2000/svg">
<path opacity="0.4" d="M55.9 63.2667H24.0999C22.6999 63.2667 21.4333 62.3667 20.9666 61.0667L7.09995 22.2333C5.99995 19.1333 9.53328 16.5 12.1666 18.4L25.4999 27.9333C27.2666 29.2 29.7999 28.4333 30.5666 26.4L36.8666 9.6C37.9333 6.7 42.0333 6.7 43.0999 9.6L49.3999 26.4C50.1666 28.4667 52.6666 29.2 54.4666 27.9333L67.8 18.4C70.4666 16.5 73.9666 19.1667 72.8666 22.2333L59 61.0667C58.5666 62.3667 57.3 63.2667 55.9 63.2667Z" fill="#E0E2EA"/>
<path d="M56.6667 73.3333H23.3334C21.9667 73.3333 20.8334 72.2 20.8334 70.8333C20.8334 69.4667 21.9667 68.3333 23.3334 68.3333H56.6667C58.0334 68.3333 59.1667 69.4667 59.1667 70.8333C59.1667 72.2 58.0334 73.3333 56.6667 73.3333Z" fill="#E0E2EA"/>
<path d="M48.3333 49.1667H31.6666C30.3 49.1667 29.1666 48.0333 29.1666 46.6667C29.1666 45.3 30.3 44.1667 31.6666 44.1667H48.3333C49.7 44.1667 50.8333 45.3 50.8333 46.6667C50.8333 48.0333 49.7 49.1667 48.3333 49.1667Z" fill="#E0E2EA"/>
</svg>
